<?xml version="1.0" standalone="no"?><!DOCTYPE svg PUBLIC "-//W3C//DTD SVG 1.1//EN" "http://www.w3.org/Graphics/SVG/1.1/DTD/svg11.dtd"><svg xmlns:xlink="http://www.w3.org/1999/xlink" version="1.1" class="highcharts-root" style="font-family: &quot;Helvetica Neue&quot;, Helvetica, Arial, sans-serif; font-size: 12px;" xmlns="http://www.w3.org/2000/svg" width="750" height="520" viewBox="0 0 750 520"><desc>Created with Highcharts 10.1.0</desc><defs><clipPath id="highcharts-oblhssb-859-"><rect x="0" y="0" width="687" height="420" fill="none"></rect></clipPath><clipPath id="highcharts-oblhssb-1021-"><rect x="0" y="0" width="687" height="420" fill="none"></rect></clipPath><clipPath id="highcharts-oblhssb-1188-"><rect x="0" y="40" width="687" height="420" fill="none"></rect></clipPath></defs><rect fill="#ffffff" class="highcharts-background" x="0" y="0" width="750" height="520" rx="0" ry="0"></rect><rect fill="none" class="highcharts-plot-background" x="0" y="40" width="687" height="420"></rect><g class="highcharts-grid highcharts-xaxis-grid" data-z-index="1"><path fill="none" stroke="#EDF3F6" stroke-width="1" stroke-dasharray="none" data-z-index="1" class="highcharts-grid-line" d="M 90.5 40 L 90.5 460" opacity="1"></path><path fill="none" stroke="#EDF3F6" stroke-width="1" stroke-dasharray="none" data-z-index="1" class="highcharts-grid-line" d="M 190.5 40 L 190.5 460" opacity="1"></path><path fill="none" stroke="#EDF3F6" stroke-width="1" stroke-dasharray="none" data-z-index="1" class="highcharts-grid-line" d="M 290.5 40 L 290.5 460" opacity="1"></path><path fill="none" stroke="#EDF3F6" stroke-width="1" stroke-dasharray="none" data-z-index="1" class="highcharts-grid-line" d="M 390.5 40 L 390.5 460" opacity="1"></path><path fill="none" stroke="#EDF3F6" stroke-width="1" stroke-dasharray="none" data-z-index="1" class="highcharts-grid-line" d="M 490.5 40 L 490.5 460" opacity="1"></path><path fill="none" stroke="#EDF3F6" stroke-width="1" stroke-dasharray="none" data-z-index="1" class="highcharts-grid-line" d="M 590.5 40 L 590.5 460" opacity="1"></path></g><g class="highcharts-grid highcharts-yaxis-grid" data-z-index="1"><path fill="none" stroke="#E7E7E7" stroke-width="1" stroke-dasharray="none" data-z-index="1" class="highcharts-grid-line" d="M 0 460.5 L 687 460.5" opacity="1"></path><path fill="none" stroke="#E7E7E7" stroke-width="1" stroke-dasharray="none" data-z-index="1" class="highcharts-grid-line" d="M 0 390.5 L 687 390.5" opacity="1"></path><path fill="none" stroke="#E7E7E7" stroke-width="1" stroke-dasharray="none" data-z-index="1" class="highcharts-grid-line" d="M 0 320.5 L 687 320.5" opacity="1"></path><path fill="none" stroke="#E7E7E7" stroke-width="1" stroke-dasharray="none" data-z-index="1" class="highcharts-grid-line" d="M 0 250.5 L 687 250.5" opacity="1"></path><path fill="none" stroke="#E7E7E7" stroke-width="1" stroke-dasharray="none" data-z-index="1" class="highcharts-grid-line" d="M 0 180.5 L 687 180.5" opacity="1"></path><path fill="none" stroke="#E7E7E7" stroke-width="1" stroke-dasharray="none" data-z-index="1" class="highcharts-grid-line" d="M 0 110.5 L 687 110.5" opacity="1"></path><path fill="none" stroke="#E7E7E7" stroke-width="1" stroke-dasharray="none" data-z-index="1" class="highcharts-grid-line" d="M 0 39.5 L 687 39.5" opacity="1"></path></g><g class="highcharts-grid highcharts-yaxis-grid" data-z-index="1"></g><g class="highcharts-grid highcharts-yaxis-grid" data-z-index="1"></g><rect fill="none" class="highcharts-plot-border" data-z-index="1" x="0" y="40" width="687" height="420"></rect><g class="highcharts-axis highcharts-xaxis" data-z-index="2"><path fill="none" class="highcharts-axis-line" stroke="#E6E6E6" stroke-width="1" data-z-index="7" d="M 0 460.5 L 687 460.5"></path></g><g class="highcharts-axis highcharts-yaxis" data-z-index="2"><path fill="none" class="highcharts-axis-line" data-z-index="7" d="M 720 40 L 720 460"></path></g><g class="highcharts-axis highcharts-yaxis" data-z-index="2"><path fill="none" class="highcharts-axis-line" stroke="#E6E6E6" stroke-width="1" data-z-index="7" d="M -1.5 40 L -1.5 460"></path></g><g class="highcharts-series-group" data-z-index="3"><g class="highcharts-series highcharts-series-0 highcharts-line-series" data-z-index="90" opacity="1" transform="translate(0,40) scale(1 1)" clip-path="url(#highcharts-oblhssb-1021-)"><path fill="none" d="M 0 403.564 L 4.1636363636365 400.26 L 8.3272727272726 397.138 L 12.490909090909 391.566 L 16.654545454545 394.044 L 20.818181818182 394.24 L 24.981818181818 393.036 L 29.145454545455 393.596 L 33.309090909091 389.354 L 37.472727272727 386.33 L 41.636363636364 390.418 L 45.8 389.046 L 49.963636363636 385.14 L 54.127272727273 387.65999999999997 L 58.290909090909 386.862 L 62.454545454545 388.766 L 66.618181818182 388.808 L 70.781818181818 382.186 L 74.945454545455 382.606 L 79.109090909091 385.616 L 83.272727272727 386.70799999999997 L 87.436363636364 389.13 L 91.6 386.512 L 95.763636363636 385.98 L 99.927272727273 385.224 L 104.09090909091 385 L 108.25454545455 387.1 L 112.41818181818 386.54 L 116.58181818182 386.19 L 120.74545454545 384.104 L 124.90909090909 384.272 L 129.07272727273 381.78 L 133.23636363636 381.36 L 137.4 383.068 L 141.56363636364 383.95 L 145.72727272727 383.67 L 149.89090909091 381.71 L 154.05454545455 383.04 L 158.21818181818 383.152 L 162.38181818182 383.348 L 166.54545454545 383.46 L 170.70909090909 383.355 L 174.87272727273 382.116 L 179.03636363636 382.9434 L 183.2 380.4094 L 187.36363636364 381.7954 L 191.52727272727 384.9258 L 195.69090909091 387.6684 L 199.85454545455 390.3648 L 204.01818181818 392.595 L 208.18181818182 393.3692 L 212.34545454545 395.892 L 216.50909090909 394.6376 L 220.67272727273 389.158 L 224.83636363636 386.3062 L 229 388.0072 L 233.16363636364 386.1102 L 237.32727272727 390.1856 L 241.49090909091 391.629 L 245.65454545455 387.7216 L 249.81818181818 389.8062 L 253.98181818182 391.3308 L 258.14545454545 391.65840000000003 L 262.30909090909 391.3644 L 266.47272727273 391.286 L 270.63636363636 393.05 L 274.8 393.8662 L 278.96363636364 394.8154 L 283.12727272727 394.765 L 287.29090909091 399.2996 L 291.45454545455 401.2736 L 295.61818181818 402.9298 L 299.78181818182 403.2882 L 303.94545454545 402.1094 L 308.10909090909 400.526 L 312.27272727273 399.875 L 316.43636363636 399.7588 L 320.6 403.8384 L 324.76363636364 398.51 L 328.92727272727 395.0926 L 333.09090909091 394.5018 L 337.25454545455 392.6426 L 341.41818181818 390.9514 L 345.58181818182 396.3456 L 349.74545454545 397.8786 L 353.90909090909 397.3452 L 358.07272727273 398.587 L 362.23636363636 399.224 L 366.4 399.0476 L 370.56363636364 396.9686 L 374.72727272727 395.6652 L 378.89090909091 394.5046 L 383.05454545455 391.5744 L 387.21818181818 392.525 L 391.38181818182 394.87 L 395.54545454545 395.71 L 399.70909090909 394.5116 L 403.87272727273 391.6528 L 408.03636363636 388.36 L 412.2 389.382 L 416.36363636364 389.0418 L 420.52727272727 383.8282 L 424.69090909091 381.7394 L 428.85454545455 385.9338 L 433.01818181818 385.4326 L 437.18181818182 389.2252 L 441.34545454545 392.2072 L 445.50909090909 395.0604 L 449.67272727273 400.1018 L 453.83636363636 399.8554 L 458 404.313 L 462.16363636364 405.8362 L 466.32727272727 404.6028 L 470.49090909091 402.0842 L 474.65454545455 397.0512 L 478.81818181818 397.4138 L 482.98181818182 397.138 L 487.14545454545 403.1286 L 491.30909090909 406.343 L 495.47272727273 407.5764 L 499.63636363636 410.3372 L 503.8 411.2906 L 507.96363636364 413.861 L 512.12727272727 411.3718 L 516.29090909091 411.5678 L 520.45454545455 404.2654 L 524.61818181818 401.3996 L 528.78181818182 400.3146 L 532.94545454545 398.8068 L 537.10909090909 393.2278 L 541.27272727273 392.2534 L 545.43636363636 398.0284 L 549.6 393.40840000000003 L 553.76363636364 387.401 L 557.92727272727 384.8278 L 562.09090909091 371.5292 L 566.25454545455 362.9416 L 570.41818181818 349.5268 L 574.58181818182 283.1164 L 578.74545454545 329.1904 L 582.90909090909 290.4818 L 587.07272727273 321.51980000000003 L 591.23636363636 301.4592 L 595.4 281.967 L 599.56363636364 243.7316 L 603.72727272727 280.77 L 607.89090909091 288.3944 L 612.05454545455 217.6804 L 616.21818181818 152.719 L 620.38181818182 84.1302 L 624.54545454545 155.68 L 628.70909090909 247.3072 L 632.87272727273 215.0442 L 637.03636363636 313.159 L 641.2 339.7072 L 645.36363636364 354.669 L 649.52727272727 353.01980000000003 L 653.69090909091 366.0468 L 657.85454545455 382.4072 L 662.01818181818 368.0558 L 666.18181818182 384.496" class="highcharts-graph" data-z-index="1" stroke="#2962FF" stroke-width="2" stroke-linejoin="round" stroke-linecap="round"></path></g><g class="highcharts-markers highcharts-series-0 highcharts-line-series" data-z-index="90" opacity="1" transform="translate(0,40) scale(1 1)" clip-path="none"></g></g><text x="740" text-anchor="end" class="highcharts-title" data-z-index="4" style="color: rgb(51, 51, 51); font-size: 15px; fill: rgb(51, 51, 51);" y="513">source: tradingeconomics.com</text><text x="14" text-anchor="start" class="highcharts-subtitle" data-z-index="4" style="color: rgb(51, 51, 51); fill: rgb(51, 51, 51); font-size: 15px;" y="25">Natural Gas EU Dutch TTF</text><text x="0" text-anchor="start" class="highcharts-caption" data-z-index="4" style="color: rgb(102, 102, 102); fill: rgb(102, 102, 102);" y="527"></text><g class="highcharts-axis-labels highcharts-xaxis-labels" data-z-index="7"><text x="91.221487603306" text-anchor="middle" transform="translate(0,0)" style="color: black; cursor: default; font-size: 15px; font-weight: 400; fill: black;" y="480" opacity="1">2012</text><text x="191.39296187683" text-anchor="middle" transform="translate(0,0)" style="color: black; cursor: default; font-size: 15px; font-weight: 400; fill: black;" y="480" opacity="1">2014</text><text x="291.0871657754" text-anchor="middle" transform="translate(0,0)" style="color: black; cursor: default; font-size: 15px; font-weight: 400; fill: black;" y="480" opacity="1">2016</text><text x="391.25170454545" text-anchor="middle" transform="translate(0,0)" style="color: black; cursor: default; font-size: 15px; font-weight: 400; fill: black;" y="480" opacity="1">2018</text><text x="491.17478005865" text-anchor="middle" transform="translate(0,0)" style="color: black; cursor: default; font-size: 15px; font-weight: 400; fill: black;" y="480" opacity="1">2020</text><text x="590.98402203857" text-anchor="middle" transform="translate(0,0)" style="color: black; cursor: default; font-size: 15px; font-weight: 400; fill: black;" y="480" opacity="1">2022</text></g><g class="highcharts-axis-labels highcharts-yaxis-labels" data-z-index="7"><text x="0" text-anchor="start" transform="translate(0,0)" style="color: unset; cursor: default; font-size: 15px; fill: unset;" visibility="hidden"><tspan>0</tspan></text><text x="695" text-anchor="start" transform="translate(0,0)" style="color: unset; cursor: default; font-size: 15px; fill: unset;" y="395" opacity="1">50</text><text x="695" text-anchor="start" transform="translate(0,0)" style="color: unset; cursor: default; font-size: 15px; fill: unset;" y="325" opacity="1">100</text><text x="695" text-anchor="start" transform="translate(0,0)" style="color: unset; cursor: default; font-size: 15px; fill: unset;" y="255" opacity="1">150</text><text x="695" text-anchor="start" transform="translate(0,0)" style="color: unset; cursor: default; font-size: 15px; fill: unset;" y="185" opacity="1">200</text><text x="695" text-anchor="start" transform="translate(0,0)" style="color: unset; cursor: default; font-size: 15px; fill: unset;" y="115" opacity="1">250</text><text x="0" text-anchor="start" transform="translate(0,0)" style="color: unset; cursor: default; font-size: 15px; fill: unset;" visibility="hidden">300</text></g><g class="highcharts-axis-labels highcharts-yaxis-labels" data-z-index="7"></g><g class="highcharts-axis-labels highcharts-yaxis-labels" data-z-index="7"></g><g class="highcharts-control-points" data-z-index="99" clip-path="url(#highcharts-oblhssb-1188-)"></g><g class="highcharts-axis highcharts-yaxis" data-z-index="9999"><path fill="none" class="highcharts-tick" stroke="#E7E7E7" stroke-width="1" d="M 688 460.5 L 693 460.5" opacity="1"></path><path fill="none" class="highcharts-tick" stroke="#E7E7E7" stroke-width="1" d="M 688 390.5 L 693 390.5" opacity="1"></path><path fill="none" class="highcharts-tick" stroke="#E7E7E7" stroke-width="1" d="M 688 320.5 L 693 320.5" opacity="1"></path><path fill="none" class="highcharts-tick" stroke="#E7E7E7" stroke-width="1" d="M 688 250.5 L 693 250.5" opacity="1"></path><path fill="none" class="highcharts-tick" stroke="#E7E7E7" stroke-width="1" d="M 688 180.5 L 693 180.5" opacity="1"></path><path fill="none" class="highcharts-tick" stroke="#E7E7E7" stroke-width="1" d="M 688 110.5 L 693 110.5" opacity="1"></path><path fill="none" class="highcharts-tick" stroke="#E7E7E7" stroke-width="1" d="M 688 39.5 L 693 39.5" opacity="1"></path><path fill="none" class="highcharts-axis-line" stroke="#E6E6E6" stroke-width="1" data-z-index="7" d="M 688.5 40 L 688.5 460"></path></g><path fill="none" d="M 0 0 L 1366 0" stroke="#524f4f" stroke-width="1" stroke-dasharray="8,3" data-z-index="6" visibility="hidden" class="crosshair-fix-horizontal"></path><path fill="none" d="M 0 40 L 0 808" stroke="#524f4f" stroke-width="1" stroke-dasharray="8,3" data-z-index="6" visibility="hidden" class="crosshair-fix-vertical"></path></svg>